<svg width="50" height="50" viewBox="0 0 50 50" fill="none" xmlns="http://www.w3.org/2000/svg">
<rect width="50" height="50" rx="15" fill="white" fill-opacity="0.996078"/>
<g clip-path="url(#clip0_971_3377)">
<path d="M25.9375 16.2109H35.5469C36.0323 16.2109 36.4258 15.8174 36.4258 15.332C36.4258 14.8466 36.0323 14.4531 35.5469 14.4531H25.9375C25.4521 14.4531 25.0586 14.8466 25.0586 15.332C25.0586 15.8174 25.4521 16.2109 25.9375 16.2109Z" fill="black"/>
<path d="M40 20.3125V13.8086C40 11.7085 38.2915 10 36.1914 10H25.293C23.1929 10 21.4844 11.7085 21.4844 13.8086V20.6055H20.3125C17.1 20.6055 14.4057 22.8654 13.7351 25.8789H13.5742V20.4543C14.5972 20.0915 15.332 19.1146 15.332 17.9688C15.332 16.5149 14.1492 15.332 12.6953 15.332C11.2414 15.332 10.0586 16.5149 10.0586 17.9688C10.0586 19.1146 10.7934 20.0915 11.8164 20.4543V26.0102C10.7631 26.356 10 27.3481 10 28.5156V32.0312C10 33.4851 11.1828 34.668 12.6367 34.668H13.7223C14.3709 37.7107 17.0792 40 20.3125 40H29.6875C32.9208 40 35.6291 37.7107 36.2777 34.668H37.3633C38.8172 34.668 40 33.4851 40 32.0312V28.5156C40 27.0617 38.8172 25.8789 37.3633 25.8789H36.2646C36.128 25.2648 35.9063 24.6732 35.6056 24.1211H36.1914C38.2915 24.1211 40 22.4126 40 20.3125ZM23.2422 13.8086C23.2422 12.6778 24.1622 11.7578 25.293 11.7578H36.1914C37.3222 11.7578 38.2422 12.6778 38.2422 13.8086V20.3125C38.2422 21.4433 37.3222 22.3633 36.1914 22.3633H25.8789C25.7424 22.3633 25.6079 22.395 25.4859 22.456L23.2422 23.5779V13.8086ZM12.6953 17.0898C13.1799 17.0898 13.5742 17.4841 13.5742 17.9688C13.5742 18.4534 13.1799 18.8477 12.6953 18.8477C12.2107 18.8477 11.8164 18.4534 11.8164 17.9688C11.8164 17.4841 12.2107 17.0898 12.6953 17.0898ZM11.7578 32.0312V28.5156C11.7578 28.031 12.1521 27.6367 12.6367 27.6367H13.5742V32.9102H12.6367C12.1521 32.9102 11.7578 32.5159 11.7578 32.0312ZM38.2422 28.5156V32.0312C38.2422 32.5159 37.8479 32.9102 37.3633 32.9102H36.4258V27.6367H37.3633C37.8479 27.6367 38.2422 28.031 38.2422 28.5156ZM34.668 27.3438V33.2617C34.668 36.0079 32.4337 38.2422 29.6875 38.2422H20.3125C17.5663 38.2422 15.332 36.0079 15.332 33.2617V27.3438C15.332 24.5975 17.5663 22.3633 20.3125 22.3633H21.4844V25C21.4844 25.6523 22.1724 26.0781 22.7563 25.7861L26.0864 24.1211H33.4833C34.2473 25.0202 34.668 26.1604 34.668 27.3438Z" fill="black"/>
<path d="M25.9375 19.7266H35.5469C36.0323 19.7266 36.4258 19.333 36.4258 18.8477C36.4258 18.3623 36.0323 17.9688 35.5469 17.9688H25.9375C25.4521 17.9688 25.0586 18.3623 25.0586 18.8477C25.0586 19.333 25.4521 19.7266 25.9375 19.7266Z" fill="black"/>
<path d="M28.2148 32.7214C27.2172 33.6061 26.1055 34.0737 25 34.0737C23.8945 34.0737 22.7829 33.6061 21.7853 32.7214C21.4222 32.3993 20.8667 32.4326 20.5446 32.7958C20.2225 33.1589 20.2558 33.7145 20.619 34.0365C21.9703 35.235 23.4849 35.834 25.0001 35.834C26.5149 35.834 28.0302 35.2347 29.3812 34.0365C29.7444 33.7145 29.7777 33.1589 29.4557 32.7958C29.1335 32.4326 28.578 32.3993 28.2148 32.7214Z" fill="black"/>
<path d="M20.8789 29.2578C21.3643 29.2578 21.7578 28.8643 21.7578 28.3789C21.7578 27.8935 21.3643 27.5 20.8789 27.5C20.3935 27.5 20 27.8935 20 28.3789C20 28.8643 20.3935 29.2578 20.8789 29.2578Z" fill="black"/>
<path d="M28.8867 29.2578C29.3721 29.2578 29.7656 28.8643 29.7656 28.3789C29.7656 27.8935 29.3721 27.5 28.8867 27.5C28.4013 27.5 28.0078 27.8935 28.0078 28.3789C28.0078 28.8643 28.4013 29.2578 28.8867 29.2578Z" fill="black"/>
</g>
<defs>
<clipPath id="clip0_971_3377">
<rect width="30" height="30" fill="white" transform="translate(10 10)"/>
</clipPath>
</defs>
</svg>
