<svg width="50" height="50" viewBox="0 0 50 50" fill="none" xmlns="http://www.w3.org/2000/svg">
<rect width="50" height="50" rx="10" fill="white"/>
<g clip-path="url(#clip0_971_3379)">
<path d="M34.3018 14.9214C33.8735 14.9214 33.5249 15.2699 33.5249 15.6983C33.5249 16.1266 33.8735 16.4751 34.3018 16.4751C34.7302 16.4751 35.0787 16.1266 35.0787 15.6983C35.0787 15.2699 34.7302 14.9214 34.3018 14.9214Z" fill="black"/>
<path d="M25 18.1128C21.2024 18.1128 18.1128 21.2024 18.1128 25C18.1128 28.7977 21.2024 31.8874 25 31.8874C28.7977 31.8874 31.8874 28.7977 31.8874 25.0001C31.8874 21.2025 28.7977 18.1128 25 18.1128Z" fill="black"/>
<path d="M32.2277 9H17.7723C12.9352 9 9 12.9353 9 17.7724V32.2277C9 37.0648 12.9352 41 17.7723 41H32.2277C37.0648 41 41 37.0648 41 32.2277V17.7724C41 12.9353 37.0648 9 32.2277 9ZM25 33.777C20.1603 33.777 16.2231 29.8397 16.2231 25C16.2231 20.1603 20.1604 16.2231 25 16.2231C29.8396 16.2231 33.777 20.1604 33.777 25C33.777 29.8396 29.8396 33.777 25 33.777ZM34.3019 18.3647C32.8316 18.3647 31.6353 17.1685 31.6353 15.6981C31.6353 14.2277 32.8316 13.0314 34.3019 13.0314C35.7723 13.0314 36.9686 14.2277 36.9686 15.6981C36.9686 17.1684 35.7723 18.3647 34.3019 18.3647Z" fill="black"/>
</g>
<defs>
<clipPath id="clip0_971_3379">
<rect width="32" height="32" fill="white" transform="translate(9 9)"/>
</clipPath>
</defs>
</svg>
