<svg width="50" height="50" viewBox="0 0 50 50" fill="none" xmlns="http://www.w3.org/2000/svg">
<rect width="50" height="50" rx="15" fill="white"/>
<path d="M37.8762 14H12.1238C10.4014 14 9 15.4014 9 17.1238V33.4582C9 35.1806 10.4013 36.582 12.1238 36.582H37.8762C39.5986 36.582 41 35.1806 41 33.4582V17.1238C41 15.4014 39.5986 14 37.8762 14ZM35.9403 16.5686L25.0001 25.2564L14.0597 16.5686H35.9403ZM37.8762 34.0133H12.1238C11.8177 34.0133 11.5686 33.7643 11.5686 33.4581V17.8702L24.2013 27.902C24.4352 28.0877 24.7176 28.1806 24.9999 28.1806C25.2823 28.1806 25.5648 28.0878 25.7986 27.902L38.4314 17.8702V33.4581C38.4314 33.7643 38.1823 34.0133 37.8762 34.0133Z" fill="black"/>
</svg>
