<svg width="50" height="50" viewBox="0 0 50 50" fill="none" xmlns="http://www.w3.org/2000/svg">
<rect width="50" height="50" rx="15" fill="white"/>
<g clip-path="url(#clip0_971_3374)">
<path d="M33.7096 28.584C33.0954 27.9445 32.3546 27.6026 31.5695 27.6026C30.7907 27.6026 30.0435 27.9382 29.404 28.5777L27.4032 30.5722C27.2386 30.4835 27.074 30.4012 26.9157 30.3189C26.6877 30.2049 26.4725 30.0973 26.2888 29.9833C24.4147 28.793 22.7114 27.2417 21.0779 25.2345C20.2864 24.2341 19.7545 23.392 19.3683 22.5372C19.8875 22.0624 20.3687 21.5685 20.8373 21.0936C21.0145 20.9163 21.1918 20.7327 21.3691 20.5554C22.6988 19.2258 22.6988 17.5035 21.3691 16.1739L19.6406 14.4453C19.4443 14.249 19.2417 14.0464 19.0517 13.8438C18.6718 13.4512 18.2729 13.046 17.8613 12.6661C17.2472 12.0583 16.5127 11.7354 15.7402 11.7354C14.9678 11.7354 14.2206 12.0583 13.5874 12.6661C13.5811 12.6724 13.5811 12.6724 13.5748 12.6788L11.422 14.8506C10.6115 15.661 10.1493 16.6488 10.048 17.7948C9.89607 19.6437 10.4406 21.3659 10.8585 22.4929C11.8842 25.2599 13.4165 27.8242 15.7022 30.5722C18.4755 33.8837 21.8123 36.4986 25.624 38.3412C27.0803 39.0313 29.0241 39.8481 31.1959 39.9874C31.3289 39.9938 31.4682 40.0001 31.5948 40.0001C33.0574 40.0001 34.2858 39.4746 35.2482 38.4298C35.2545 38.4172 35.2672 38.4108 35.2735 38.3982C35.6028 37.9993 35.9827 37.6384 36.3816 37.2521C36.6538 36.9925 36.9324 36.7203 37.2047 36.4353C37.8315 35.7832 38.1608 35.0234 38.1608 34.2446C38.1608 33.4594 37.8252 32.706 37.1857 32.0728L33.7096 28.584ZM35.9764 35.2513C35.97 35.2576 35.97 35.2513 35.9764 35.2513C35.7294 35.5172 35.4761 35.7578 35.2039 36.0238C34.7923 36.4163 34.3744 36.8279 33.9819 37.2901C33.3424 37.9739 32.5889 38.2969 31.6011 38.2969C31.5062 38.2969 31.4049 38.2969 31.3099 38.2905C29.4294 38.1702 27.6818 37.4357 26.3712 36.8089C22.7874 35.074 19.6406 32.611 17.0256 29.4895C14.8665 26.8871 13.4228 24.4811 12.4667 21.8977C11.8779 20.3211 11.6626 19.0928 11.7576 17.9341C11.8209 17.1933 12.1058 16.5791 12.6314 16.0536L14.7905 13.8945C15.1007 13.6032 15.43 13.4449 15.7529 13.4449C16.1518 13.4449 16.4747 13.6855 16.6773 13.8881C16.6837 13.8945 16.69 13.9008 16.6963 13.9071C17.0825 14.268 17.4498 14.6416 17.836 15.0405C18.0323 15.2431 18.2349 15.4457 18.4375 15.6547L20.1661 17.3832C20.8373 18.0544 20.8373 18.6749 20.1661 19.3461C19.9825 19.5297 19.8052 19.7133 19.6216 19.8906C19.0897 20.4351 18.5832 20.9417 18.0323 21.4355C18.0196 21.4482 18.007 21.4545 18.0006 21.4672C17.4561 22.0117 17.5574 22.5436 17.6714 22.9045C17.6777 22.9235 17.6841 22.9425 17.6904 22.9615C18.1399 24.0505 18.7731 25.0763 19.7355 26.2983L19.7419 26.3046C21.4894 28.4574 23.3319 30.1353 25.3644 31.4206C25.624 31.5852 25.8899 31.7182 26.1432 31.8448C26.3712 31.9588 26.5864 32.0665 26.7701 32.1804C26.7954 32.1931 26.8207 32.2121 26.846 32.2248C27.0613 32.3324 27.2639 32.383 27.4729 32.383C27.9984 32.383 28.3277 32.0538 28.4353 31.9462L30.6007 29.7807C30.816 29.5654 31.1579 29.3058 31.5568 29.3058C31.9494 29.3058 32.2723 29.5528 32.4686 29.768C32.4749 29.7744 32.4749 29.7744 32.4813 29.7807L35.97 33.2695C36.6222 33.9153 36.6222 34.5801 35.9764 35.2513Z" fill="black"/>
<path d="M26.2129 17.1361C27.8718 17.4147 29.3787 18.1998 30.5817 19.4029C31.7848 20.6059 32.5636 22.1128 32.8485 23.7717C32.9181 24.1896 33.2791 24.4809 33.6906 24.4809C33.7413 24.4809 33.7856 24.4746 33.8362 24.4682C34.3048 24.3922 34.615 23.949 34.5391 23.4805C34.1972 21.4733 33.2474 19.6435 31.7974 18.1935C30.3475 16.7435 28.5176 15.7938 26.5105 15.4519C26.0419 15.3759 25.605 15.6861 25.5227 16.1484C25.4404 16.6106 25.7443 17.0601 26.2129 17.1361Z" fill="black"/>
<path d="M39.9654 23.2336C39.4019 19.9285 37.8443 16.9209 35.4509 14.5275C33.0575 12.1342 30.05 10.5766 26.7448 10.013C26.2826 9.93072 25.8457 10.2473 25.7634 10.7095C25.6874 11.1781 25.9977 11.615 26.4662 11.6973C29.4168 12.1975 32.1078 13.5968 34.2479 15.7306C36.388 17.8707 37.781 20.5617 38.2812 23.5122C38.3508 23.9301 38.7117 24.2214 39.1233 24.2214C39.1739 24.2214 39.2183 24.215 39.2689 24.2087C39.7311 24.1391 40.0477 23.6958 39.9654 23.2336Z" fill="black"/>
</g>
<defs>
<clipPath id="clip0_971_3374">
<rect width="30" height="30" fill="white" transform="translate(10 10)"/>
</clipPath>
</defs>
</svg>
