<svg width="50" height="50" viewBox="0 0 50 50" fill="none" xmlns="http://www.w3.org/2000/svg">
<rect width="50" height="50" rx="15" fill="white"/>
<path d="M32.5809 27.7705C32.4027 27.6702 32.2007 27.5565 31.9573 27.41C31.8214 27.328 31.6506 27.2158 31.4696 27.0971C30.5407 26.4873 29.8368 26.0558 29.2376 26.0558C29.0972 26.0558 28.9645 26.0795 28.8435 26.1262C28.3185 26.3284 27.8874 26.8684 27.4706 27.3906C27.3178 27.582 27.0991 27.8559 26.9664 27.9783C26.4401 27.8826 25.3299 27.1949 24.1319 25.9969C22.9325 24.7975 22.2446 23.6861 22.1502 23.161C22.2725 23.0278 22.5485 22.8075 22.7411 22.6538C23.2613 22.2384 23.7993 21.8089 24.0025 21.2856C24.2618 20.6132 23.7866 19.809 23.0318 18.6592C22.913 18.4782 22.8008 18.3072 22.7194 18.1725C22.5724 17.9281 22.4588 17.726 22.3585 17.5478C21.9469 16.8164 21.675 16.333 20.6533 16.333C19.9902 16.333 19.0527 16.9596 18.4176 17.5811C17.4947 18.4844 16.9863 19.5272 16.9863 20.5196C16.9881 23.215 18.4924 26.3042 21.1135 28.9983C21.118 29.0028 21.1225 29.004 21.1271 29.0085C23.8212 31.6297 26.9121 33.1288 29.6074 33.1288H29.6085C30.5995 33.1288 31.6428 32.6263 32.546 31.7039C33.1679 31.0689 33.7954 30.1382 33.7954 29.4755C33.7954 28.4539 33.3123 28.1821 32.5809 27.7705ZM29.6077 31.7363C27.3119 31.7346 24.5112 30.3433 22.1147 28.0143C19.7855 25.6175 18.3941 22.8167 18.3926 20.521C18.3926 19.1324 20.1946 17.8122 20.6659 17.7398C20.7621 17.7402 20.8126 17.7459 20.8366 17.75C20.8989 17.8217 21.0228 18.0418 21.133 18.2378C21.2328 18.4151 21.357 18.6359 21.5152 18.8988C21.6109 19.0572 21.7301 19.2388 21.8563 19.431C22.0952 19.795 22.5753 20.5265 22.6563 20.8388C22.5209 21.0304 22.1009 21.3656 21.8638 21.5549C21.257 22.0394 20.7329 22.4578 20.7329 23.049C20.7343 24.4772 22.5739 26.4277 23.1377 26.9915C23.7015 27.5552 25.6519 29.3948 27.0831 29.3962C27.6706 29.3943 28.0872 28.8724 28.5697 28.2681C28.7599 28.0298 29.0972 27.6073 29.2896 27.4726C29.6015 27.553 30.334 28.0337 30.6982 28.2728C30.8904 28.399 31.072 28.5182 31.2314 28.6144C31.4933 28.7721 31.7141 28.8963 31.8915 28.9961C32.0873 29.1063 32.3075 29.2302 32.3792 29.2925C32.3833 29.3165 32.3889 29.367 32.3894 29.4632C32.3165 29.934 30.9958 31.7346 29.6077 31.7363Z" fill="black"/>
<path d="M39.3708 25.0673C39.3215 21.2676 37.7962 17.677 35.0763 14.9569C32.3061 12.1868 28.6495 10.6611 24.7799 10.6611C21.0446 10.6611 17.5502 12.0985 14.9403 14.7082C12.6244 17.0242 11.2035 20.113 10.9392 23.4058C10.6885 26.53 11.4838 29.6915 13.1821 32.3497L10.863 38.6182C10.7657 38.8813 10.8341 39.1771 11.0371 39.3709C11.1704 39.4982 11.3452 39.5653 11.5226 39.5653C11.6152 39.5653 11.7085 39.5385 11.7971 39.5009L17.8368 36.9307C20.1425 38.3658 22.779 39.1054 25.4861 39.1054H25.4864C29.2211 39.1054 32.7155 37.6853 35.325 35.0757C37.9833 32.4173 39.4202 28.8739 39.3708 25.0673ZM34.3305 34.0985C31.9864 36.4425 28.8454 37.7334 25.4861 37.7333C22.9286 37.7333 20.4404 36.9847 18.2903 35.5685C18.1738 35.4917 18.0391 35.4526 17.9036 35.4526C17.8105 35.4526 17.7172 35.471 17.6291 35.5084L12.7468 37.5791L14.6242 32.5046C14.7027 32.2922 14.6742 32.055 14.5475 31.8673C11.0969 26.7552 11.6803 19.957 15.9347 15.7027C18.2789 13.3585 21.4202 12.0674 24.7799 12.0674C28.2738 12.0674 31.5773 13.4467 34.0818 15.9513C36.5412 18.4106 37.9201 21.6545 37.9646 25.0856C38.0091 28.5097 36.7185 31.7105 34.3305 34.0985Z" fill="black"/>
</svg>
